<svg id="Layer_2" data-name="Layer 2" xmlns="http://www.w3.org/2000/svg" xmlns:xlink="http://www.w3.org/1999/xlink" viewBox="0 0 148.57 79.2"><defs><style>.cls-1{font-size:72px;fill:#231f20;font-family:CooperBlackStd, Cooper Std;}.cls-2{fill:url(#Light_Spectrum_);}.cls-3{fill:none;stroke:#231f20;stroke-miterlimit:10;}</style><linearGradient id="Light_Spectrum_" x1="5.53" y1="34.08" x2="148.67" y2="34.08" gradientUnits="userSpaceOnUse"><stop offset="0" stop-color="#bddeeb"/><stop offset="0.2" stop-color="#bcb7d5"/><stop offset="0.4" stop-color="#f0c9d7"/><stop offset="0.6" stop-color="#f3c6b3"/><stop offset="0.8" stop-color="#f5f2ca"/><stop offset="1" stop-color="#c1dec7"/></linearGradient></defs><text class="cls-1" transform="translate(0 61.2)">Boo</text><path class="cls-2" d="M49.53,28.83c-.65.57-1.3,1-1.3,1.94S49,32,49.74,32.35c3,1.16,8.07,5,8.07,11,0,7.2-4.83,16.06-19.3,16.06-2.45,0-4.68-.07-6.84-.22s-4.32-.14-6.55-.14c-2.45,0-5,.07-7.42.14s-4.89.22-7.42.22c-2.23,0-4.75-1.3-4.75-3.82,0-4.46,4.68.07,5.11-11.88L11.44,23c.43-10.87-5.76-5.9-5.76-10.87,0-2.74,3-4,5.18-4,2.67,0,5.33.14,8,.21s5.33.29,8,.29c1.72,0,3.38-.14,5-.29s3.38-.21,5-.21c13.17,0,16.56,6.26,16.56,11.81A11.65,11.65,0,0,1,49.53,28.83Zm-21-3.17c0,2.81-.14,4.17,2.09,4.17,4.32,0,5.33-3,5.33-7,0-3.24-1.08-7.27-5-7.27-2.66,0-2.38,2.16-2.38,4.25Zm0,17.57c0,8.35,1.37,8.57,3.6,8.57,4.11,0,5.55-2.81,5.55-6.56,0-4.39-1.3-8.28-6.34-8.28-2.23,0-2.73,1.15-2.81,2.67Z" transform="translate(-4.52 2.13)"/><path class="cls-2" d="M60.11,42.44c0-12.89,11.3-20.17,23.18-20.17,12.6,0,19.81,9.87,19.81,18.8,0,11.81-12.68,19-23.26,19S60.11,53.81,60.11,42.44ZM80.2,30.77c-2.38,0-3.67,2.23-3.53,4.32C77,39.63,78.25,50.72,83.22,51c2.74.15,3.31-2.16,3.31-4.46C86.53,43.3,85.09,30.77,80.2,30.77Z" transform="translate(-4.52 2.13)"/><path class="cls-2" d="M105.68,42.44c0-12.89,11.31-20.17,23.19-20.17,12.6,0,19.8,9.87,19.8,18.8,0,11.81-12.67,19-23.26,19S105.68,53.81,105.68,42.44Zm20.09-11.67c-2.37,0-3.67,2.23-3.53,4.32.29,4.54,1.59,15.63,6.56,15.91,2.73.15,3.31-2.16,3.31-4.46C132.11,43.3,130.67,30.77,125.77,30.77Z" transform="translate(-4.52 2.13)"/><path class="cls-3" d="M67.78,70" transform="translate(-4.52 2.13)"/><path class="cls-3" d="M67-12.74" transform="translate(-4.52 2.13)"/></svg>